HIERARCHY
ROOT Hips
{
	OFFSET 0.000000 0.000000 0.000000
	CHANNELS 6 Xposition Yposition Zposition Xrotation Yrotation Zrotation
	JOINT LeftUpLeg_virtual
	{
		OFFSET 0.000000 0.000000 0.000000
		CHANNELS 3 Xrotation Yrotation Zrotation
		JOINT LeftUpLeg
		{
			OFFSET 10.205400 -3.823500 0.155100
			CHANNELS 3 Xrotation Yrotation Zrotation
			JOINT LeftLeg
			{
				OFFSET 0.708757 -12.982077 0.567790
				CHANNELS 3 Xrotation Yrotation Zrotation
				JOINT LeftFoot
				{
					OFFSET -0.708756 -10.717838 -2.184338
					CHANNELS 3 Xrotation Yrotation Zrotation
					JOINT LeftToeBase
					{
						OFFSET 0.108149 -7.191104 7.560241
						CHANNELS 3 Xrotation Yrotation Zrotation
						JOINT LeftToe_End
						{
							OFFSET 0.070230 0.081724 4.490308
							CHANNELS 3 Xrotation Yrotation Zrotation
							End Site
							{
								OFFSET 0 0 0
							}
						}
					}
				}
			}
		}
	}
	JOINT RightUpLeg_virtual
	{
		OFFSET 0.000000 0.000000 0.000000
		CHANNELS 3 Xrotation Yrotation Zrotation
		JOINT RightUpLeg
		{
			OFFSET -10.205400 -3.823500 0.005500
			CHANNELS 3 Xrotation Yrotation Zrotation
			JOINT RightLeg
			{
				OFFSET -0.708756 -12.982134 0.610632
				CHANNELS 3 Xrotation Yrotation Zrotation
				JOINT RightFoot
				{
					OFFSET 0.708754 -10.717769 -1.945823
					CHANNELS 3 Xrotation Yrotation Zrotation
					JOINT RightToeBase
					{
						OFFSET -0.108140 -7.191069 7.372968
						CHANNELS 3 Xrotation Yrotation Zrotation
						JOINT RightToe_End
						{
							OFFSET -0.070227 0.081735 4.479403
							CHANNELS 3 Xrotation Yrotation Zrotation
							End Site
							{
								OFFSET 0 0 0
							}
						}
					}
				}
			}
		}
	}
	JOINT Spine_virtual
	{
		OFFSET 0.000000 0.000000 0.000000
		CHANNELS 3 Xrotation Yrotation Zrotation
		JOINT Spine
		{
			OFFSET 0.000000 6.876099 0.125700
			CHANNELS 3 Xrotation Yrotation Zrotation
			JOINT Spine1
			{
				OFFSET 0.000000 5.730043 0.104720
				CHANNELS 3 Xrotation Yrotation Zrotation
				JOINT Spine1_split
				{
					OFFSET 0.000000 5.730043 0.104720
					CHANNELS 3 Xrotation Yrotation Zrotation
					JOINT Spine2
					{
						OFFSET 0.000000 5.730043 0.104720
						CHANNELS 3 Xrotation Yrotation Zrotation
						JOINT Neck_virtual
						{
							OFFSET 0.000000 0.000000 0.000000
							CHANNELS 3 Xrotation Yrotation Zrotation
							JOINT Neck
							{
								OFFSET 0.000000 10.314075 0.188496
								CHANNELS 3 Xrotation Yrotation Zrotation
								JOINT Head
								{
									OFFSET 0.000000 7.643700 -2.377400
									CHANNELS 3 Xrotation Yrotation Zrotation
									JOINT HeadTop_End
									{
										OFFSET 0.000000 43.788605 -13.619600
										CHANNELS 3 Xrotation Yrotation Zrotation
										End Site
										{
											OFFSET 0 0 0
										}
									}
								}
							}
						}
						JOINT LeftShoulder_virtual
						{
							OFFSET 0.000000 0.000000 0.000000
							CHANNELS 3 Xrotation Yrotation Zrotation
							JOINT LeftShoulder
							{
								OFFSET 2.196100 4.412489 0.087492
								CHANNELS 3 Xrotation Yrotation Zrotation
								JOINT LeftShoulder_split
								{
									OFFSET 2.196100 4.412489 0.087492
									CHANNELS 3 Xrotation Yrotation Zrotation
									JOINT LeftArm
									{
										OFFSET 8.771219 -2.981674 -0.026999
										CHANNELS 3 Xrotation Yrotation Zrotation
										JOINT LeftForeArm
										{
											OFFSET 8.512804 0.000000 -0.000000
											CHANNELS 3 Xrotation Yrotation Zrotation
											JOINT LeftHand
											{
												OFFSET 18.484802 0.000000 -0.000000
												CHANNELS 3 Xrotation Yrotation Zrotation
												End Site
												{
													OFFSET 0 0 0
												}
											}
										}
									}
								}
							}
						}
						JOINT RightShoulder_virtual
						{
							OFFSET 0.000000 0.000000 0.000000
							CHANNELS 3 Xrotation Yrotation Zrotation
							JOINT RightShoulder
							{
								OFFSET -2.196100 4.412496 0.070690
								CHANNELS 3 Xrotation Yrotation Zrotation
								JOINT RightShoulder_split
								{
									OFFSET -2.196100 4.412496 0.070690
									CHANNELS 3 Xrotation Yrotation Zrotation
									JOINT RightArm
									{
										OFFSET -8.771282 -2.981682 -0.094208
										CHANNELS 3 Xrotation Yrotation Zrotation
										JOINT RightForeArm
										{
											OFFSET -8.494598 0.000000 0.000000
											CHANNELS 3 Xrotation Yrotation Zrotation
											JOINT RightHand
											{
												OFFSET -18.483803 0.000000 0.000001
												CHANNELS 3 Xrotation Yrotation Zrotation
												End Site
												{
													OFFSET 0 0 0
												}
											}
										}
									}
								}
							}
						}
					}
				}
			}
		}
	}
}
MOTION
Frames: 9
Frame Time: 0.03333333
-1.757248 31.481430 -7.320477 0.000000 0.000000 0.000000 174.768859 54.305229 -178.533686 -23.573804 -7.142437 8.360344 32.723334 -13.529567 -2.190609 -6.801573 5.236815 -22.362125 5.680359 -4.210685 8.578262 0.000000 0.000000 0.000000 172.356354 48.090020 -175.422262 7.512834 -11.820715 -6.090898 32.929151 6.670334 3.464094 -33.112245 -7.298338 24.245886 -6.010501 7.024530 -4.174196 0.000000 0.000000 0.000000 171.192804 52.559217 -178.057144 0.360502 -8.572782 13.491183 2.883084 -0.571670 0.013968 0.094774 -0.637529 -0.078509 0.000000 0.000000 0.000000 5.009670 3.592174 1.550137 34.388473 -5.099810 -5.842814 114.063906 -62.109635 -44.103672 0.000000 0.000000 0.000000 1.841320 1.257508 -2.068093 5.395933 -7.034974 -28.545435 4.079792 -19.032437 5.719749 -19.749835 36.261358 -22.660017 -13.051535 -60.708647 -5.988639 0.000000 0.000000 0.000000 1.335962 1.131200 2.268483 -12.008744 -9.079553 4.266997 15.628006 3.018419 -16.062580 -26.133967 -2.821576 42.371222 -9.179811 16.727432 -0.020670 0.000000 0.000000 0.000000 
-1.839771 31.485573 -6.729980 0.000000 0.000000 0.000000 174.366451 51.482042 -178.283182 -22.704228 -5.170478 9.398972 32.830079 -13.199611 -3.275627 -8.384433 6.819090 -20.724869 4.226626 -4.692797 8.775132 0.000000 0.000000 0.000000 172.186132 47.709732 -175.816541 5.174041 -9.591581 -6.424661 31.900429 6.515680 2.822095 -36.213393 -6.530658 20.740006 3.262170 6.767492 -5.285809 0.000000 0.000000 0.000000 171.634717 51.194395 -178.262801 -0.598939 -8.561782 13.687447 2.850532 -0.134816 -0.004312 0.185727 0.001853 -0.035367 0.000000 0.000000 0.000000 4.271083 3.671607 1.294478 33.827075 -5.293761 -6.180165 116.694137 -60.819980 -36.671614 0.000000 0.000000 0.000000 1.819735 1.485493 -1.984116 4.509571 -7.528369 -26.880317 7.515980 -14.822456 4.508810 -19.193178 37.741201 -24.788710 -12.469213 -55.410589 -4.509752 0.000000 0.000000 0.000000 1.647119 1.649995 1.579351 -11.398473 -4.380442 6.242408 17.835410 10.125856 -19.964308 -26.726163 -0.650017 42.221982 -8.764926 13.312776 -0.887976 0.000000 0.000000 0.000000 
-2.134688 31.148121 -6.356382 0.000000 0.000000 0.000000 174.117778 50.086983 -177.867811 -22.397683 -1.299106 11.384642 35.343285 -13.054685 -4.718108 -11.466724 10.063250 -18.573695 3.673059 -5.044904 8.274445 0.000000 0.000000 0.000000 171.991267 48.883978 -175.859326 -4.201025 -7.443469 -8.370664 35.771654 9.126664 1.799854 -35.231205 -4.026020 22.003975 8.181723 7.104568 -10.644653 0.000000 0.000000 0.000000 172.590343 50.760938 -178.700466 -1.461147 -8.162148 13.479910 2.927275 0.389745 -0.329144 0.317956 0.287653 -0.020742 0.000000 0.000000 0.000000 3.296070 4.025367 0.689467 32.498061 -5.044870 -7.840349 114.331383 -57.404946 -29.434833 0.000000 0.000000 0.000000 1.834116 1.873954 -1.975905 3.187800 -9.174693 -24.368506 9.555848 -12.521676 4.773317 -14.835594 38.940613 -27.051425 -11.397866 -45.434914 -2.298429 0.000000 0.000000 0.000000 1.756231 2.286982 0.663690 -10.777693 0.868559 8.642094 18.398467 9.820577 -21.434677 -25.487684 11.126878 39.642343 -7.634730 6.129994 -2.511769 0.000000 0.000000 0.000000 
-2.549952 30.553020 -6.367605 0.000000 0.000000 0.000000 173.634638 49.859206 -177.065510 -22.416811 4.108808 13.169255 39.912146 -12.489822 -6.146575 -18.170342 14.591675 -14.722478 3.909501 -5.364904 7.725591 0.000000 0.000000 0.000000 171.516978 50.315135 -175.080138 -18.746095 -5.118482 -11.067862 43.591825 13.161243 0.166027 -32.032610 -0.318667 25.442472 8.692056 7.918132 -18.128398 0.000000 0.000000 0.000000 173.040739 51.478050 -178.240521 -2.228993 -7.580001 12.743650 3.304178 0.847804 -0.849755 0.311240 0.330298 0.030470 0.000000 0.000000 0.000000 2.559655 4.514659 0.021209 30.577695 -3.940819 -10.430471 106.927192 -51.920687 -25.219152 0.000000 0.000000 0.000000 1.963117 2.365401 -1.977323 2.013074 -11.341673 -21.502185 10.346976 -12.373686 6.024962 -7.539664 39.772410 -28.796265 -10.931762 -35.103853 -0.785439 0.000000 0.000000 0.000000 1.652014 2.774162 -0.188692 -10.180277 5.214714 10.752930 15.654391 4.226391 -19.875480 -20.460124 28.063594 34.171505 -6.525911 -1.146878 -4.254207 0.000000 0.000000 0.000000 
-3.032572 29.792242 -6.453928 0.000000 0.000000 0.000000 172.571409 49.693878 -175.386062 -22.647729 9.247665 14.373476 45.459413 -11.818380 -7.013003 -28.178239 19.088215 -10.462217 4.290416 -5.629898 7.404661 0.000000 0.000000 0.000000 170.816966 51.442120 -173.931327 -35.706159 -3.116928 -13.681110 52.366500 16.546864 -1.811179 -28.003014 3.792011 27.000697 8.836895 8.874423 -25.284691 0.000000 0.000000 0.000000 172.152732 52.723443 -176.190207 -2.791347 -6.893250 11.483421 3.843052 0.923799 -1.344341 0.106068 0.210023 0.170428 0.000000 0.000000 0.000000 2.356253 4.690439 -0.459664 27.817849 -2.433135 -13.321800 96.648529 -44.598116 -23.573778 0.000000 0.000000 0.000000 2.217002 2.688364 -1.861338 1.499289 -13.246486 -18.325054 9.864569 -12.754885 6.471317 1.519889 40.852721 -29.752830 -11.024117 -29.055840 -0.019453 0.000000 0.000000 0.000000 1.627355 2.780399 -0.705028 -9.583088 8.022839 12.467581 11.588084 -1.078255 -18.089939 -10.042511 43.003592 24.970113 -5.997742 -6.524521 -5.778173 0.000000 0.000000 0.000000 
-3.674584 28.912733 -6.315546 0.000000 0.000000 0.000000 170.791967 49.352235 -172.839344 -24.396348 12.155399 15.559531 51.524372 -11.526697 -6.788750 -37.492715 22.664866 -8.656764 4.360803 -5.850669 7.418049 0.000000 0.000000 0.000000 169.743848 52.236966 -172.390081 -52.138635 -1.975514 -15.894909 60.153681 18.339200 -3.259843 -23.261083 7.506316 25.270834 10.615813 9.420130 -30.294037 0.000000 0.000000 0.000000 169.161711 53.856772 -172.025008 -2.774039 -6.220830 9.864642 4.393741 0.470327 -1.627965 -0.065108 0.121411 0.152243 0.000000 0.000000 0.000000 2.950981 4.334526 -0.616097 24.502979 -0.711073 -15.773110 86.243064 -35.578435 -23.202405 0.000000 0.000000 0.000000 2.740454 2.592219 -1.613804 1.902969 -13.756237 -14.812647 9.036196 -14.645355 6.130711 9.998291 42.714268 -29.977215 -11.464635 -29.962889 0.066615 0.000000 0.000000 0.000000 2.213504 2.294400 -0.823700 -8.973677 8.702872 13.219741 8.339365 -3.389705 -16.152496 3.245697 50.405089 13.734775 -6.376267 -10.396774 -7.148867 0.000000 0.000000 0.000000 
-4.273170 28.045130 -5.963722 0.000000 0.000000 0.000000 168.453106 49.018833 -169.994953 -28.198526 12.012324 17.181599 58.780765 -11.952863 -5.462434 -42.153124 25.216982 -10.106124 3.925723 -6.253587 7.128516 0.000000 0.000000 0.000000 168.125120 52.119767 -170.443969 -65.959813 -1.308893 -17.602830 66.515825 18.789656 -4.125720 -17.261698 10.202443 21.458822 10.825958 10.560503 -32.579210 0.000000 0.000000 0.000000 164.125539 54.391255 -165.694146 -1.999410 -5.401696 8.045687 5.127927 -0.320399 -1.545476 -0.135084 0.126181 0.058777 0.000000 0.000000 0.000000 4.418374 3.549316 -0.285393 20.604857 0.901029 -16.782975 77.217761 -26.288179 -22.317836 0.000000 0.000000 0.000000 3.627615 2.200030 -1.437911 2.891029 -12.624746 -11.607854 8.975875 -18.522016 5.463251 17.594940 45.951532 -30.407258 -11.740188 -38.865614 -0.318449 0.000000 0.000000 0.000000 3.566084 1.535382 -0.616662 -8.474702 7.402731 13.494540 4.826081 -2.764563 -14.967419 10.406052 49.424823 8.412852 -8.098551 -14.165078 -8.388406 0.000000 0.000000 0.000000 
-4.723987 27.189798 -5.640617 0.000000 0.000000 0.000000 166.006641 48.859734 -167.288900 -34.539870 7.650123 19.442497 67.171099 -13.640721 -2.767859 -40.248109 26.356460 -15.640133 1.270226 -7.057240 6.703777 0.000000 0.000000 0.000000 165.870160 51.353245 -168.065438 -75.951956 -0.752192 -18.661658 71.589590 18.421193 -5.000471 -11.657168 11.302980 17.857326 8.704932 12.739072 -32.611677 0.000000 0.000000 0.000000 158.259581 53.936023 -159.041119 -0.201904 -4.229378 6.240142 6.126708 -1.171383 -1.096989 -0.177266 0.206482 -0.019676 0.000000 0.000000 0.000000 6.723820 2.531746 0.402909 16.237981 2.183363 -16.060700 69.725467 -18.095142 -20.421011 0.000000 0.000000 0.000000 4.733374 1.577823 -1.546498 4.009879 -10.375436 -9.345209 9.268165 -22.032682 3.965955 24.870595 50.893338 -32.177967 -11.281499 -52.620795 -0.316429 0.000000 0.000000 0.000000 5.735224 0.955730 -0.187873 -8.327580 4.376702 13.669994 1.213963 -0.383465 -14.511825 7.979584 42.248340 11.070695 -11.472316 -18.956850 -9.518084 0.000000 0.000000 0.000000 
-4.996094 26.192619 -5.565071 0.000000 0.000000 0.000000 163.749660 48.828749 -165.185461 -42.245393 0.086947 21.181627 76.127567 -15.354007 0.682000 -34.472163 25.340156 -22.357366 -4.445604 -8.398148 5.842830 0.000000 0.000000 0.000000 163.084249 50.818325 -165.194163 -82.341202 0.306721 -19.418954 76.451373 17.622399 -6.511345 -9.102895 11.289305 16.173690 8.178352 14.826452 -31.008314 0.000000 0.000000 0.000000 152.786045 53.131591 -153.706167 2.720876 -2.739509 4.386247 7.525621 -1.862046 -0.334463 -0.047272 0.224359 -0.139710 0.000000 0.000000 0.000000 9.660760 1.665123 1.250542 11.339520 3.591063 -13.380483 62.959263 -11.488178 -18.050807 0.000000 0.000000 0.000000 6.001239 0.931858 -2.036550 4.816486 -7.944206 -8.820287 8.358020 -21.854286 2.165611 31.230856 56.502535 -34.921845 -8.390560 -64.903920 1.899911 0.000000 0.000000 0.000000 8.502719 0.877735 0.271105 -8.560882 -0.706975 13.694900 -1.910121 2.151461 -14.676016 0.125638 30.579078 16.753819 -16.361732 -24.287938 -10.669657 0.000000 0.000000 0.000000 
